<?xml version="1.0" encoding="UTF-8"?>
<svg id="Layer_2" xmlns="http://www.w3.org/2000/svg" viewBox="0 0 219.23 271.64">
  <defs>
    <style>
      .cls-1 {
        fill: #fed521;
        stroke: #fc3d24;
        stroke-miterlimit: 10;
        stroke-width: 15px;
      }
    </style>
  </defs>
  <g id="Layer_1-2" data-name="Layer_1">
    <g>
      <path class="cls-1" d="M109.94,135.39c22.99,0,45.97.1,68.96-.08,4.52-.04,6.12,1.33,6.08,5.95-.17,24.98-.16,49.97,0,74.95.03,4.41-1.61,5.82-5.86,5.77-14.32-.16-28.65-.2-42.97.02-4.7.07-6.02-1.77-5.91-6.21.24-10.15.14-20.32.05-30.48-.11-13.07-8.74-22.23-20.74-22.18-11.97.05-20.48,9.21-20.58,22.32-.08,10.33-.16,20.66.04,30.98.08,4.15-1.49,5.59-5.54,5.55-14.49-.14-28.98-.13-43.47,0-3.91.03-5.73-1.11-5.71-5.39.13-25.32.14-50.64,0-75.95-.02-4.31,1.79-5.31,5.7-5.29,23.32.12,46.64.06,69.96.06Z"/>
      <path class="cls-1" d="M109.2,125.89c-24.32,0-48.63,0-72.95,0-1.33,0-2.67.02-4-.01-5.58-.14-8.84-2.42-8.47-6.27.48-4.99,4.25-6.39,8.32-5.8,10.86,1.57,19.66-2.64,26.05-10.56,3.95-4.89,6.69-10.38,12.48-13.88,3.2-1.93,4.83-5.9,1.7-10.39-2.16-3.1.42-6.78,5.09-7.8,2.89-.63,4.76-1.73,5.85-4.6,1-2.62,1.11-4.3-2-5.37-3-1.03-4.66-3.34-3.95-6.61.7-3.22,3.28-4.91,6.24-4.77,4.54.22,6.21-1.95,6.79-5.97.64-4.44,1.68-8.82,2.25-13.27.54-4.12,2.28-7.03,6.64-7.48,3.47-.36,4.24-2.26,4.28-5.4.09-7.46,1.81-10.13,6-10.21,4.26-.08,6.2,2.76,6.21,9.98,0,3.38.9,5.29,4.56,5.69,4.12.45,5.77,3.31,6.33,7.2.68,4.77,1.73,9.48,2.48,14.24.54,3.44,2.01,5.53,5.89,5.07.79-.09,1.65.19,2.44.43,2.6.8,4.41,2.42,4.64,5.25.21,2.61-1.18,4.37-3.4,5.62-1.44.81-4.16.79-3.29,3.46.84,2.57,1.2,5.72,4.81,6.33,1.3.22,2.69.46,3.81,1.11,3.12,1.8,4.47,4.31,2.76,7.94-2.23,4.72.34,11.03,5.46,12.51,3.74,1.08,5.83,2.92,5.86,6.89,0,1.23.74,2.2,1.59,3.02,6.94,6.66,14.03,12.94,24.79,11.51,2.1-.28,4.34,0,6.44.43,2.99.6,4.6,2.76,4.55,5.74-.04,2.76-1.66,4.78-4.35,5.44-1.91.47-3.95.51-5.94.51-25.32.03-50.63.02-75.95.02Z"/>
      <path class="cls-1" d="M109.54,264.14c-30.83,0-61.67,0-92.5,0-7.86,0-9.44-1.55-9.49-9.26-.04-5.33-.11-10.67.04-16,.15-5.33,2.32-7.52,7.6-8,1.66-.15,3.33-.1,5-.1,59.67,0,119.33,0,179,0,2,0,4.01-.03,5.99.23,4.02.53,6.36,2.88,6.44,6.99.11,6.5.22,13.01-.03,19.49-.2,5.02-2.44,6.62-8.53,6.62-31.17.02-62.33.01-93.5.01Z"/>
    </g>
  </g>
</svg>