<?xml version="1.0" encoding="UTF-8"?>
<svg id="Layer_2" xmlns="http://www.w3.org/2000/svg" viewBox="0 0 204.23 256.64">
  <defs>
    <style>
      .cls-1 {
        fill: #fc3d24;
      }
    </style>
  </defs>
  <g id="Layer_1-2" data-name="Layer_1">
    <path class="cls-1" d="M101.6,256.64c-30.65,0-61.31,0-91.96,0-8.07,0-9.56-1.51-9.6-9.65-.03-5-.08-10,.02-14.99.12-6.16,2.29-8.41,8.49-8.65,4.49-.17,9-.16,13.49-.04,3.3.08,4.83-1.07,4.82-4.62-.08-31.99-.06-63.97-.02-95.96,0-2.86-.93-4.27-3.97-4.42-4-.21-6.9-2.25-6.53-6.55.37-4.35,3.86-5.9,7.62-5.44,10.64,1.3,19.71-2.06,26.3-10.06,4.17-5.06,6.77-11.11,13.05-14.62,3.1-1.73,4.52-5.66,1.57-9.95-2.27-3.3.3-7.04,5.3-8.05,3.03-.61,4.58-2.08,5.66-4.82.97-2.47.92-4.02-1.91-4.99-3-1.02-4.76-3.2-4.18-6.51.57-3.26,3.12-5.09,6.07-4.93,5.15.28,6.54-2.6,7.18-6.78.62-4.11,1.57-8.17,2.05-12.3.51-4.35,2.39-7.29,6.96-7.76,3.29-.34,4.04-2.23,3.97-5.13-.05-1.98.05-4.02.52-5.93C97.21,1.58,99.17-.08,102.3,0c2.91.07,4.62,1.72,5.39,4.36.37,1.26.66,2.65.51,3.93-.51,4.5.74,7.18,5.82,7.76,3.42.39,4.62,3.44,5.01,6.65.61,5.13,1.49,10.2,2.73,15.22.7,2.84,1.87,4.32,5.02,4.26,3.54-.06,6.81,1.06,7.64,5.03.8,3.84-1.7,5.79-4.96,7-1.48.55-2.27,1.52-1.57,3.07,1.05,2.34,1.23,5.38,4.6,5.95,1.81.31,3.64.6,5.11,1.84,2.29,1.94,3.05,4.19,1.71,7.09-2.21,4.77.25,11.17,5.21,12.63,3.67,1.08,5.99,2.71,6,6.75,0,1.23.62,2.26,1.48,3.07,6.84,6.44,13.62,12.97,24.24,11.61,1.96-.25,4-.07,5.98.17,3.4.4,5.64,2.33,5.69,5.84.04,3.24-1.99,5.68-5.12,5.77-4.86.14-5.5,2.6-5.48,6.72.13,30.65.06,61.31.07,91.96,0,6.53.05,6.55,6.79,6.58,4,.02,8-.12,11.99.09,5.63.3,7.82,2.56,7.96,8.14.14,5.66.12,11.33.02,16.99-.12,6.38-1.97,8.12-8.59,8.13-31.32.03-62.64.01-93.96.01ZM165.16,170.97c0-15.66-.08-31.32.05-46.98.03-3.96-1.18-5.68-5.42-5.67-38.48.11-76.96.1-115.45.01-3.83,0-5.34,1.34-5.33,5.24.09,31.49.09,62.97,0,94.46-.01,3.89,1.51,5.34,5.34,5.27,8.33-.15,16.66-.19,24.99.02,4.08.1,5.59-1.31,5.52-5.48-.2-13.32-.12-26.65-.05-39.98.09-16.68,11.72-28.92,27.34-28.89,15.62.03,27.16,12.26,27.25,28.98.07,13.16.15,26.32-.06,39.48-.06,4.22,1.1,6.06,5.62,5.91,8.15-.27,16.33-.24,24.48-.01,4.39.12,5.82-1.62,5.78-5.89-.16-15.49-.06-30.98-.06-46.48ZM102.04,235.57c-27.97,0-55.94.03-83.91-.04-3.56,0-6.08.21-6.01,4.93.07,4.54,2.64,4.55,5.89,4.54,14.98-.05,29.97-.02,44.95-.02,40.95,0,81.91,0,122.86.02,3.31,0,6.29.29,6.26-4.66-.03-4.32-2.15-4.81-5.64-4.8-28.14.08-56.27.04-84.41.04ZM117.1,197s-.03,0-.05,0c0-7.32.21-14.65-.06-21.96-.29-8.14-6.45-13.69-14.72-13.74-8.57-.05-14.91,5.51-15.05,13.91-.25,14.47-.05,28.94-.13,43.42-.02,3.47,1.57,4.71,4.87,4.66,6.82-.1,13.64-.11,20.46,0,3.44.05,4.75-1.49,4.71-4.83-.1-7.15-.03-14.31-.03-21.46ZM59.02,105.63h86c-4.41-6.62-9.48-9.51-17.36-9.2-17.46.68-34.99.67-52.46,0-7.75-.3-11.8,3.57-16.19,9.2ZM102.03,75.58c-5.65,0-11.3-.05-16.95.02-3.19.04-8.35,4.65-7.72,7.59.82,3.77,4.38,1.16,6.65,1.73,1.41.36,2.97.07,4.47.07,11.63,0,23.26.04,34.89-.06,1.3-.01,3.78,1.13,3.55-1.85-.29-3.7-4.61-7.45-8.44-7.48-5.48-.04-10.97-.01-16.45,0ZM101.8,63.27c3.16,0,6.34.16,9.48-.06,1.72-.12,4.81,1.12,4.7-1.86-.1-2.55-.62-6.38-4.11-6.63-6.46-.46-12.99-.44-19.45-.04-3.55.22-4.03,4.01-4.21,6.56-.22,3.09,2.89,1.83,4.6,1.96,2.98.23,5.99.06,8.98.06ZM102.06,42.34c2.43-1.44,7.15,2.26,7.43-3.17.43-8.15-2.12-11.62-7.59-11.58-5.1.04-7.48,3.41-7.18,11.5.21,5.51,4.96,1.79,7.34,3.25Z"/>
  </g>
</svg>