<?xml version="1.0" encoding="UTF-8"?>
<svg id="Layer_2" xmlns="http://www.w3.org/2000/svg" viewBox="0 0 251 251">
  <defs>
    <style>
      .cls-1 {
        fill: #f8cf26;
      }

      .cls-2 {
        fill: #fc3d24;
      }
    </style>
  </defs>
  <g id="Layer_1-2" data-name="Layer_1">
    <g>
      <circle class="cls-1" cx="125.5" cy="125.5" r="125.5"/>
      <g>
        <path class="cls-2" d="M110.72,83.13c14.78-5.19,29.55-10.39,44.33-15.56,4.56-1.6,9.15-1.81,13.68.19,4.26,1.88,7.13,5.13,8.86,9.35,1.38,3.39,2.49,6.88,3.7,10.34,1.22,3.48.5,5.11-2.87,6.6-4.98,2.2-7.77,6.84-7.23,12.02.85,8.1,7.67,12.84,15.54,10.81,3.19-.82,4.89.05,5.99,3.13,1.09,3.06,2.18,6.13,3.23,9.21,3.49,10.23-.83,19.33-11.06,22.97-15.58,5.55-31.21,10.99-46.82,16.47-14.07,4.94-28.14,9.9-42.22,14.81-4.43,1.55-8.89,1.75-13.3-.1-4.43-1.86-7.41-5.2-9.17-9.57-1.42-3.52-2.59-7.14-3.83-10.73-.99-2.85-.22-4.7,2.58-5.9,1.85-.79,3.47-1.86,4.81-3.32,3.57-3.91,3.91-9.82.88-14.75-2.67-4.34-7.88-6.44-12.87-5.16-4.19,1.07-5.5.38-6.91-3.61-.99-2.81-1.99-5.62-2.96-8.45-3.55-10.36.75-19.41,11.12-23.09,14.82-5.27,29.68-10.44,44.52-15.65ZM97.07,96.66c-3.52,1.24-7.04,2.46-10.55,3.71-6.33,2.24-12.69,4.39-18.96,6.76-4.35,1.64-6.22,5.44-5.33,9.97.41,2.07,1.19,4.03,1.76,6.04.5,1.78,1.3,2.41,3.29,2.33,8.55-.35,16.02,4.68,19.24,12.69,3.23,8.03,1.28,16.96-4.9,22.57q-3.34,3.02-1.83,7.25c2.52,7.13,6.24,10.38,15.01,7.19,18.09-6.57,36.31-12.81,54.47-19.21,3.25-1.14,4.16-.81,2.56-4.69-.15-.37-.19-.79-.22-1.19-.16-2.11.98-3.82,2.89-4.36,1.99-.57,3.95.34,4.87,2.31.34.73.61,1.51.85,2.28.36,1.16,1.06,1.45,2.18,1.05,7.15-2.55,14.35-4.98,21.45-7.67,3.99-1.51,5.79-5.39,4.99-9.6-.42-2.21-1.22-4.3-1.87-6.43-.48-1.58-1.18-2.22-3.01-2.13-8.58.4-16.03-4.51-19.37-12.51-3.26-7.81-1.46-16.71,4.35-22.37,1.22-1.19,3.56-1.68,3.53-3.58-.02-1.74-1.04-3.47-1.64-5.2-.13-.38-.32-.75-.5-1.11-3.05-6.1-6.42-7.5-12.91-5.27-5.58,1.92-11.13,3.9-16.7,5.85q-3.86,1.36-2.9,5.3c.43,1.75.03,3.25-1.38,4.38-1.34,1.08-2.86,1.21-4.38.42-1.28-.66-1.91-1.85-2.4-3.16-1-2.7-1.02-2.7-3.79-1.73-9.6,3.37-19.19,6.74-28.78,10.11Z"/>
        <path class="cls-2" d="M144.52,105.8c.47,1.34,1.03,2.65,1.39,4.02.59,2.24-.42,4.25-2.38,5-1.93.74-4.17-.05-5.14-2.08-1.28-2.68-2.26-5.5-2.95-8.39-.54-2.25.81-4.38,2.83-4.95,2.03-.57,4.11.56,4.99,2.76.47,1.19.86,2.42,1.28,3.63,0,0-.02,0-.02,0Z"/>
        <path class="cls-2" d="M152.66,128.96c.47,1.34,1.02,2.65,1.39,4.02.57,2.07-.42,4.1-2.26,4.88-1.83.78-4.09.16-5.09-1.71-1.49-2.81-2.51-5.84-3.18-8.93-.47-2.19.95-4.22,2.9-4.72,2.02-.52,3.97.5,4.88,2.65.52,1.24.91,2.54,1.36,3.82,0,0,0,0,0,0Z"/>
      </g>
    </g>
  </g>
</svg>