<?xml version="1.0" encoding="UTF-8"?>
<svg id="Layer_2" xmlns="http://www.w3.org/2000/svg" viewBox="0 0 226.38 226.61">
  <defs>
    <style>
      .cls-1 {
        fill: #fc3d24;
      }
    </style>
  </defs>
  <g id="Layer_1-2" data-name="Layer_1">
    <g>
      <path class="cls-1" d="M165.2,226.58c-16.34-.34-28.68-4.08-40.55-9.43-51.91-23.39-89.73-61.22-114.1-112.48C4.01,90.92-.63,76.45.07,60.82c.36-8.02,2.63-15.41,8.02-21.39,6.53-7.25,13.22-14.41,20.62-20.79,9.12-7.85,20.2-8.05,29.2-.11,10.85,9.57,21.1,19.83,30.62,30.73,7.16,8.19,7.08,18.96.35,27.56-4.22,5.39-9.22,10.09-14.26,14.66-2.91,2.63-2.79,4.7-1,7.84,7.83,13.78,18.34,25.32,29.92,35.93,7.56,6.93,15.7,13.12,24.83,17.93,2.11,1.11,3.5,1.04,5.2-.77,3.95-4.19,8.07-8.23,12.22-12.24,10.96-10.57,22.79-10.63,33.61-.03,8.66,8.48,17.22,17.06,25.69,25.73,10.36,10.61,10.4,23.1.2,33.84-4.86,5.12-9.81,10.15-14.74,15.2-7.81,8-17.22,12.11-25.35,11.66ZM162.09,212.75c5.82.15,11.46-.79,15.78-4.91,6.46-6.17,12.74-12.55,18.73-19.17,3.68-4.07,3.33-7.47-.15-11.71-.82-1-1.71-1.95-2.62-2.86-8.06-8.08-16.13-16.15-24.22-24.2-4.81-4.78-9.27-4.82-14.12-.07-5.21,5.11-10.31,10.33-15.5,15.45-4.57,4.51-8.59,4.87-14.39,2.02-17.71-8.72-32.26-21.41-45.38-35.91-8.4-9.28-15.93-19.19-21.25-30.62-3.48-7.49-2.54-11.21,3.56-16.82,5.02-4.61,9.88-9.43,14.54-14.4,3.94-4.22,4.02-8.39.31-12.23-8.84-9.13-17.73-18.21-26.83-27.08-5.11-4.98-9.29-4.74-14.42.24-4.56,4.43-8.81,9.19-13.55,13.4-7.75,6.89-9.58,15.5-8.44,25.28,1.52,13.07,6.24,25.13,12.22,36.62,22.26,42.79,54.88,75.15,98.34,96.32,11.79,5.74,24.02,10.27,37.39,10.64Z"/>
      <path class="cls-1" d="M126.54,0c8.69,1.29,17.75,3.83,26.38,7.63,37.27,16.42,61.11,44.44,71.74,83.72.7,2.6,1.2,5.28,1.6,7.95.65,4.31-1.41,7.43-5.27,8.25-3.6.76-6.95-1.16-7.97-5.2-1.93-7.64-3.5-15.37-6.66-22.64-15.15-34.88-41.05-56.9-78.27-65.36-1.49-.34-2.98-.7-4.44-1.15-3.66-1.14-5.62-4.25-4.98-7.81C119.3,1.96,121.99-.07,126.54,0Z"/>
      <path class="cls-1" d="M125.05,40.92c8.59,1.46,17.54,4.6,25.69,9.73,18.56,11.69,30.22,28.24,34.52,49.82.92,4.61-1.23,8.23-5.11,9.09-3.76.84-7.15-1.66-8.39-6.19-.19-.68-.35-1.37-.5-2.06-2.65-12.34-8.66-22.78-17.85-31.38-7.98-7.46-17.31-12.47-28.01-14.85-1.26-.28-2.55-.5-3.77-.9-3.48-1.15-5.45-4.28-4.87-7.59.62-3.51,3.6-5.82,8.29-5.68Z"/>
    </g>
  </g>
</svg>