<?xml version="1.0" encoding="UTF-8"?>
<svg id="Layer_2" xmlns="http://www.w3.org/2000/svg" viewBox="0 0 210.9 210.57">
  <defs>
    <style>
      .cls-1 {
        fill: #fc3d24;
      }
    </style>
  </defs>
  <g id="Layer_1-2" data-name="Layer_1">
    <path class="cls-1" d="M22.52,156.98c0-9.41-.07-18.82.04-28.23.03-2.79-.56-4.02-3.76-4.19-8.16-.42-14.03-4.64-17.14-12.23-3.18-7.77-1.75-15.04,4.08-20.92C34.43,62.53,63.36,33.89,91.98,4.94c6.01-6.08,20.83-6.81,26.48-.71.89.96,1.98,1.73,2.9,2.66,27.48,27.46,54.86,55.02,82.47,82.35,7.45,7.38,8.54,15.26,5.46,23.63-2.71,7.36-8.78,11.38-16.72,11.7-3.06.12-3.9,1.11-3.89,4.04.1,18.82.07,37.64.05,56.47-.02,16.02-9.52,25.48-25.58,25.49-9.52,0-19.04.01-28.56,0-7.02-.01-9.14-2.16-9.15-9.29,0-14.88,0-29.77,0-44.65,0-8.58-3.3-11.83-11.96-11.85-5.69,0-11.38-.04-17.07.01-6.69.06-10.57,3.9-10.6,10.63-.06,15.32-.02,30.64-.02,45.96,0,7.11-2.05,9.16-9.19,9.17-9.3.01-18.6,0-27.91,0-16.63,0-26.01-9.29-26.15-26.01-.08-9.19-.01-18.38-.02-27.58ZM35.85,153.14c0,10.84-.02,21.67,0,32.51.02,7.89,3.76,11.58,11.72,11.6,6.79.02,13.57.01,20.36,0,4.46,0,4.51-.06,4.51-4.65,0-11.82.06-23.64,0-35.46-.09-17.2,12.02-26.61,25.79-25.75,6,.37,12.04.05,18.06.09,3.91.03,7.56,1.08,10.91,3.1,8.47,5.12,11.57,13.01,11.58,22.49,0,12.15.07,24.3-.04,36.45-.03,2.86.96,3.85,3.81,3.79,7.11-.15,14.23-.03,21.34-.05,7.94-.03,11.51-3.66,11.52-11.71.01-19.59,0-39.18,0-58.78,0-2.52-.05-5.04.02-7.55.15-5.01,2.58-7.4,7.55-7.48,2.3-.04,4.6-.04,6.9,0,3.34.05,6.14-1,7.45-4.26,1.29-3.22.11-5.91-2.27-8.29-27.88-27.84-55.73-55.72-83.61-83.56-4.03-4.02-7.54-3.93-11.62.15-7.2,7.2-14.39,14.39-21.59,21.59-20.66,20.67-41.3,41.34-61.99,61.98-2.28,2.28-3.6,4.8-2.41,7.94,1.25,3.29,4.09,4.34,7.38,4.43,1.09.03,2.19.01,3.28.01,10.34,0,11.34,1.02,11.34,11.53,0,9.96,0,19.92,0,29.88Z"/>
  </g>
</svg>