<?xml version="1.0" encoding="UTF-8"?>
<svg id="Layer_2" xmlns="http://www.w3.org/2000/svg" viewBox="0 0 323.04 336.44">
  <defs>
    <style>
      .cls-1 {
        stroke-width: 11px;
      }

      .cls-1, .cls-2, .cls-3 {
        fill: #fed521;
        stroke: #fc3d24;
        stroke-miterlimit: 10;
      }

      .cls-2 {
        stroke-width: 16px;
      }

      .cls-3 {
        stroke-width: 15px;
      }
    </style>
  </defs>
  <g id="Layer_1-2" data-name="Layer_1">
    <g>
      <g>
        <path class="cls-3" d="M86.89,33.01c6.74.94,15.67,1.99,24.52,3.5,5.26.9,9.35-.35,13.12-4.12,6.24-6.24,12.45-12.57,19.22-18.2,10.69-8.88,24.74-8.92,35.39-.11,6.66,5.51,12.79,11.69,18.86,17.85,3.99,4.04,8.26,5.64,13.93,4.54,7.02-1.37,14.15-2.17,21.24-3.15,17.17-2.38,30.23,6.49,34.02,23.39,1.78,7.95,3.16,16.01,4.34,24.08.67,4.59,2.9,7.63,6.88,9.71,6.35,3.31,12.65,6.73,19,10.04,17.59,9.19,22.67,24.57,13.97,42.3-3.45,7.03-6.79,14.11-10.26,21.13-1.44,2.92-1.41,5.7.03,8.61,3.54,7.17,6.98,14.39,10.48,21.58,8.27,17.01,3.26,32.5-13.39,41.35-6.47,3.44-12.93,6.91-19.45,10.27-4.14,2.13-6.59,5.17-7.27,9.99-1.11,7.91-2.49,15.79-4.2,23.6-3.76,17.22-16.84,26.22-34.21,23.8-7.25-1.01-14.53-1.93-21.73-3.21-5.06-.9-9.05.34-12.69,3.97-6.25,6.23-12.44,12.58-19.21,18.22-10.9,9.09-24.92,9.12-35.79.12-6.53-5.41-12.55-11.45-18.48-17.52-4.11-4.2-8.49-5.84-14.36-4.67-7.01,1.4-14.14,2.19-21.24,3.15-17.11,2.31-30.11-6.67-33.84-23.65-1.75-7.96-3.1-16.02-4.31-24.08-.66-4.39-2.81-7.34-6.6-9.34-6.34-3.34-12.64-6.74-19-10.05-17.89-9.31-22.96-24.64-14.1-42.64,3.46-7.02,6.8-14.11,10.25-21.13,1.35-2.75,1.33-5.4-.01-8.14-3.52-7.18-6.96-14.4-10.47-21.58-8.39-17.17-3.33-32.82,13.51-41.71,6.33-3.35,12.63-6.77,19.01-10.02,4.33-2.21,6.8-5.36,7.53-10.36,1.24-8.56,2.75-17.11,4.72-25.53,3.18-13.62,14.52-22.15,30.61-21.93Z"/>
        <path class="cls-3" d="M124.56,135.09c-8.32,0-15.93-7.57-16.08-16.01-.15-8.5,7.64-16.11,16.43-16.05,8.55.06,15.78,7.5,15.7,16.16-.07,8.58-7.45,15.88-16.05,15.89Z"/>
        <path class="cls-3" d="M214.56,217.41c.12,8.31-7.39,15.82-15.98,15.99-8.57.18-15.87-6.92-16.16-15.7-.29-8.62,7.34-16.36,16.1-16.34,8.34.02,15.91,7.61,16.03,16.05Z"/>
      </g>
      <g>
        <path class="cls-1" d="M101.01,242.12c3.76-.4,6.25-2.85,8.74-5.35,38.75-38.77,77.52-77.52,116.26-116.29,1.29-1.29,2.61-2.61,3.61-4.12,2.66-4,1.99-7.94-1.68-11.09-4.18-3.59-8.07-2.97-13.45,2.4-39.25,39.21-78.48,78.45-117.68,117.71-1.39,1.39-2.74,2.98-3.61,4.72-2.61,5.22,1.98,12.16,7.8,12.03Z"/>
        <path class="cls-3" d="M118.04,90.56c-18.68-.06-33.07,14.04-33.16,32.5-.09,18.53,14.22,33.17,32.55,33.29,18.42.12,33.9-14.54,33.69-32.93-.23-19.63-16.53-33.74-33.08-32.85Z"/>
        <path class="cls-2" d="M203.37,255.57c18.76.09,33.18-14,33.27-32.51.09-18.58-14.27-33.19-32.69-33.27-18.43-.07-34.1,15.03-33.58,33.18.57,19.91,16.98,33.46,33,32.59Z"/>
      </g>
    </g>
  </g>
</svg>