<?xml version="1.0" encoding="UTF-8"?>
<svg id="Layer_2" xmlns="http://www.w3.org/2000/svg" viewBox="0 0 308.06 321.45">
  <defs>
    <style>
      .cls-1 {
        fill: #fc3d24;
      }
    </style>
  </defs>
  <g id="Layer_1-2" data-name="Layer_1">
    <g>
      <path class="cls-1" d="M79.4,25.51c6.73.95,15.82,2.05,24.85,3.56,5.08.85,9.04-.44,12.67-4.05,6.25-6.23,12.44-12.58,19.21-18.21,10.89-9.07,24.9-9.07,35.79-.02,6.77,5.63,12.96,11.98,19.22,18.21,3.62,3.61,7.58,4.98,12.66,4.07,7.21-1.29,14.48-2.19,21.73-3.22,17.38-2.46,30.51,6.48,34.29,23.67,1.75,7.96,3.09,16.02,4.3,24.08.66,4.4,2.88,7.31,6.67,9.3,6.63,3.49,13.25,7.01,19.88,10.52,16.7,8.85,21.78,24.33,13.53,41.3-2.77,5.69-5.3,11.53-8.48,16.99-3.66,6.27-3.57,12.01.09,18.24,3.12,5.3,5.56,11,8.27,16.54,8.43,17.22,3.36,32.71-13.59,41.66-6.48,3.42-12.94,6.89-19.44,10.27-3.96,2.07-6.31,5.04-6.95,9.65-1.01,7.25-2.47,14.44-3.76,21.65-3.4,19.06-16.85,28.65-35.98,25.71-6.91-1.06-13.86-1.85-20.75-3.05-4.88-.85-8.73.43-12.24,3.89-6.4,6.32-12.69,12.8-19.59,18.54-10.66,8.86-24.74,8.86-35.39.03-6.78-5.62-12.99-11.95-19.23-18.19-3.75-3.76-7.81-5.17-13.09-4.2-7.2,1.32-14.48,2.21-21.73,3.22-17.13,2.38-30.22-6.54-33.97-23.45-1.77-7.96-3.15-16.01-4.33-24.08-.67-4.6-2.94-7.61-6.91-9.68-6.65-3.47-13.27-6.99-19.88-10.51-16.42-8.75-21.52-24.24-13.44-40.95,3.04-6.3,5.93-12.69,9.32-18.8,2.88-5.2,2.77-9.9-.08-15.06-3.3-5.97-6.12-12.21-9.11-18.35-8.22-16.89-3.12-32.53,13.48-41.33,6.48-3.43,12.93-6.9,19.45-10.27,4.15-2.14,6.5-5.23,7.22-10.03,1.31-8.72,2.8-17.44,4.83-26.01,3.15-13.31,14.52-21.8,30.53-21.62ZM230.33,276.2c5.62.23,9.45-3.42,10.41-9.18,1.43-8.54,2.9-17.07,4.53-25.57,1.64-8.53,6.48-14.89,14.02-19.09,7.42-4.13,15-7.98,22.44-12.07,6.86-3.77,8.09-7.33,4.85-14.31-3.36-7.25-6.89-14.43-10.45-21.59-4.55-9.15-4.54-18.22.02-27.37,3.35-6.71,6.64-13.44,9.83-20.22,4.04-8.6,3.05-11.64-5.18-16.13-7.46-4.07-15.07-7.87-22.41-12.13-6.78-3.93-11.31-9.84-12.87-17.63-1.74-8.65-3.31-17.33-4.73-26.04-1.16-7.09-5.06-10.27-12.02-9.31-7.42,1.02-14.85,2.02-22.26,3.12-11.1,1.65-20.73-.88-28.71-9.21-5.18-5.41-10.76-10.44-16.2-15.6-5.39-5.12-9.8-5.11-15.2.03-5.67,5.4-11.36,10.78-16.94,16.27-6.4,6.3-13.91,9.79-22.98,8.82-9.26-.99-18.49-2.34-27.73-3.52-6.08-.78-10.34,2.41-11.37,8.46-1.26,7.39-2.73,14.74-3.74,22.16-1.59,11.74-7.79,19.86-18.31,25.05-6.42,3.17-12.72,6.58-19,10.03-6.86,3.76-8.1,7.34-4.87,14.3,3.36,7.25,6.89,14.43,10.45,21.59,4.55,9.15,4.56,18.22-.01,27.36-3.28,6.56-6.5,13.14-9.63,19.76-4.35,9.19-3.43,12.04,5.4,16.84,7.31,3.98,14.78,7.7,21.98,11.88,6.78,3.93,11.3,9.84,12.88,17.62,1.7,8.32,3.27,16.67,4.63,25.05,1.4,8.59,4.67,11.3,13.1,10.17,7.1-.95,14.19-1.93,21.27-2.96,11.09-1.61,20.74.95,28.73,9.22,5.32,5.5,10.99,10.68,16.57,15.93,4.97,4.67,9.47,4.65,14.46-.05,5.46-5.14,11.06-10.15,16.2-15.59,8.35-8.83,18.41-11.3,30.07-9.34,7.71,1.3,15.49,2.23,22.77,3.26Z"/>
      <path class="cls-1" d="M224.57,100.29c.27,3.29-2.05,5.85-4.59,8.38-27.33,27.3-54.64,54.62-81.96,81.94-12.13,12.13-24.26,24.25-36.38,36.39-2.15,2.16-4.36,4.06-7.65,4.24-4.04.23-7.3-1.13-9.25-4.67-2-3.63-1.81-7.38.65-10.82.77-1.07,1.76-1.99,2.7-2.94,39.32-39.33,78.65-78.65,117.96-118,2.54-2.54,5.11-4.72,9.01-4.63,5.49.12,9.43,3.98,9.5,10.11Z"/>
      <path class="cls-1" d="M117.35,77.36c19.23.04,34.11,15.01,34.07,34.29-.04,18.94-15.4,34.31-34.31,34.32-19.04,0-34.52-15.67-34.4-34.82.12-18.93,15.39-33.83,34.64-33.79ZM117.15,125.76c8.34-.01,14.64-6.2,14.56-14.3-.09-8.16-6.46-14.45-14.64-14.45-7.83,0-14.65,6.76-14.68,14.57-.03,7.99,6.43,14.2,14.76,14.19Z"/>
      <path class="cls-1" d="M190.91,244.1c-19.28-.01-34.24-14.9-34.25-34.1-.02-19.21,15.43-34.61,34.61-34.5,18.74.1,34.15,15.76,34.09,34.63-.07,19-15.26,33.98-34.45,33.97ZM190.77,195.71c-8.32.05-14.59,6.34-14.41,14.45.18,8.21,6.52,14.35,14.78,14.29,7.95-.06,14.58-6.76,14.54-14.69-.04-8.01-6.51-14.11-14.9-14.05Z"/>
    </g>
  </g>
</svg>