<svg width="45" height="61" viewBox="0 0 45 61" fill="none" xmlns="http://www.w3.org/2000/svg">
<path d="M22.092 0C9.91041 0 4.57764e-05 9.91037 4.57764e-05 22.0918C4.57764e-05 37.2093 19.7701 59.4028 20.6119 60.3402C21.4025 61.2207 22.7829 61.2192 23.572 60.3402C24.4138 59.4028 44.1839 37.2093 44.1839 22.0918C44.1836 9.91037 34.2734 0 22.092 0ZM22.092 55.9639C15.4383 48.0603 3.97839 32.4673 3.97839 22.092C3.97839 12.104 12.104 3.97835 22.092 3.97835C32.0799 3.97835 40.2055 12.104 40.2055 22.0919C40.2054 32.4676 28.7473 48.0578 22.092 55.9639Z" fill="#CD3F0D"/>
<path d="M22.0921 10.9775C15.9632 10.9775 10.9772 15.9637 10.9772 22.0925C10.9772 28.2214 15.9634 33.2075 22.0921 33.2075C28.2208 33.2075 33.2068 28.2214 33.2068 22.0925C33.2068 15.9637 28.2208 10.9775 22.0921 10.9775ZM22.0921 29.2292C18.1569 29.2292 14.9556 26.0278 14.9556 22.0925C14.9556 18.1573 18.157 14.9559 22.0921 14.9559C26.0272 14.9559 29.2286 18.1573 29.2286 22.0925C29.2286 26.0278 26.0272 29.2292 22.0921 29.2292Z" fill="#CD3F0D"/>
</svg>
